<svg width="24" height="24" viewBox="0 0 24 24" fill="none" xmlns="http://www.w3.org/2000/svg">
<path d="M21.8882 1.76884C21.4868 1.31526 20.9932 0.952581 20.4403 0.705021C19.8875 0.457462 19.2882 0.330726 18.6825 0.333282C18.1153 0.332572 17.5536 0.443762 17.0294 0.660484C16.5053 0.877206 16.0291 1.1952 15.628 1.59626C15.227 1.99731 14.909 2.47355 14.6922 2.99769C14.4755 3.52183 14.3643 4.08358 14.365 4.65076C14.365 5.46028 14.5917 6.22664 14.9911 6.87426C15.2069 7.24124 15.4876 7.57585 15.8114 7.85648C16.5669 8.54728 17.5708 8.96823 18.6825 8.96823C19.1574 8.96823 19.6108 8.89268 20.0317 8.74156C21.0247 8.42855 21.8559 7.74855 22.3739 6.87426C22.6006 6.50727 22.7733 6.08632 22.8705 5.65457C22.9568 5.33076 23 4.99616 23 4.65076C23 3.5498 22.579 2.53519 21.8882 1.76884ZM20.2908 5.4387H19.492V6.2806C19.492 6.72315 19.125 7.09013 18.6825 7.09013C18.24 7.09013 17.873 6.72315 17.873 6.2806V5.4387H17.0742C16.6317 5.4387 16.2647 5.07171 16.2647 4.62917C16.2647 4.18663 16.6317 3.81964 17.0742 3.81964H17.873V3.05329C17.873 2.61075 18.24 2.24376 18.6825 2.24376C19.125 2.24376 19.492 2.61075 19.492 3.05329V3.81964H20.2908C20.5055 3.81964 20.7114 3.90493 20.8632 4.05675C21.015 4.20856 21.1003 4.41447 21.1003 4.62917C21.1003 4.84387 21.015 5.04978 20.8632 5.20159C20.7114 5.35341 20.5055 5.4387 20.2908 5.4387Z" fill="#FFA800"/>
<path d="M21.9206 12.2063C21.9206 10.7924 21.6508 9.43236 21.1435 8.19109C20.8089 8.42855 20.4311 8.61204 20.0317 8.74156C19.913 8.78474 19.7943 8.81712 19.6647 8.8495C20.3159 10.5027 20.4718 12.3097 20.1134 14.0501C19.7549 15.7904 18.8977 17.3888 17.6463 18.6502C17.3333 18.2508 16.9339 17.8838 16.459 17.5708C13.5339 15.6063 8.74153 15.6063 5.79486 17.5708C5.31994 17.8838 4.93136 18.2508 4.60755 18.6502C2.90734 16.9364 1.953 14.6204 1.95231 12.2063C1.95231 7.1441 6.0647 3.0317 11.1269 3.0317C12.3035 3.0317 13.4368 3.25837 14.473 3.66853C14.5054 3.53901 14.5377 3.42028 14.5809 3.29075C14.7104 2.89138 14.8939 2.5244 15.1422 2.18979C13.8669 1.67254 12.5031 1.40858 11.1269 1.41265C5.17962 1.41265 0.333252 6.25902 0.333252 12.2063C0.333252 15.3365 1.68246 18.1537 3.81961 20.1289C3.81961 20.1397 3.81961 20.1397 3.80882 20.1505C3.91676 20.2584 4.04628 20.3448 4.15422 20.4419C4.21898 20.4959 4.27295 20.5499 4.33771 20.593C4.532 20.7549 4.74787 20.9061 4.95295 21.0572L5.16882 21.2083C5.3739 21.3486 5.58978 21.4781 5.81645 21.5968C5.892 21.64 5.97835 21.694 6.05391 21.7372C6.26978 21.8559 6.49645 21.9638 6.73391 22.061C6.82026 22.1042 6.90661 22.1473 6.99296 22.1797C7.23042 22.2768 7.46788 22.3632 7.70534 22.4388C7.79169 22.4711 7.87804 22.5035 7.96439 22.5251C8.22344 22.6007 8.48249 22.6654 8.74154 22.7302C8.81709 22.7518 8.89265 22.7734 8.979 22.7842C9.28122 22.8489 9.58344 22.8921 9.89646 22.9245C9.93963 22.9245 9.98281 22.9353 10.026 22.9461C10.393 22.9784 10.76 23 11.1269 23C11.4939 23 11.8609 22.9784 12.2171 22.9461C12.2603 22.9461 12.3035 22.9353 12.3466 22.9245C12.6596 22.8921 12.9619 22.8489 13.2641 22.7842C13.3396 22.7734 13.4152 22.741 13.5016 22.7302C13.7606 22.6654 14.0304 22.6115 14.2787 22.5251C14.365 22.4927 14.4514 22.4603 14.5377 22.4388C14.7752 22.3524 15.0235 22.2768 15.2501 22.1797C15.3365 22.1473 15.4228 22.1042 15.5092 22.061C15.7358 21.9638 15.9625 21.8559 16.1892 21.7372C16.2755 21.694 16.3511 21.64 16.4266 21.5968C16.6425 21.4673 16.8584 21.3486 17.0743 21.2083C17.1498 21.1651 17.2146 21.1111 17.2901 21.0572C17.506 20.9061 17.7111 20.7549 17.9054 20.593C17.9701 20.5391 18.0241 20.4851 18.0889 20.4419C18.2076 20.3448 18.3263 20.2476 18.4343 20.1505C18.4343 20.1397 18.4343 20.1397 18.4235 20.1289C20.5714 18.1537 21.9206 15.3365 21.9206 12.2063Z" fill="#FFA800"/>
<path d="M11.1269 6.73394C8.89266 6.73394 7.07932 8.54728 7.07932 10.7816C7.07932 12.9727 8.79551 14.7536 11.073 14.8184H11.2673C12.315 14.784 13.3084 14.3436 14.0375 13.5903C14.7666 12.8371 15.1743 11.8299 15.1746 10.7816C15.1746 8.54728 13.3612 6.73394 11.1269 6.73394Z" fill="#FFA800"/>
</svg>
