<svg width="24" height="24" viewBox="0 0 24 24" fill="none" xmlns="http://www.w3.org/2000/svg">
<path d="M14.75 12C14.75 13.5189 13.5189 14.75 12 14.75C10.4811 14.75 9.25 13.5189 9.25 12C9.25 10.4811 10.4811 9.25 12 9.25C13.5189 9.25 14.75 10.4811 14.75 12ZM6.5 12C6.5 13.5189 5.26886 14.75 3.75 14.75C2.23114 14.75 1 13.5189 1 12C1 10.4811 2.23114 9.25 3.75 9.25C5.26886 9.25 6.5 10.4811 6.5 12ZM23 12C23 13.5189 21.7689 14.75 20.25 14.75C18.7311 14.75 17.5 13.5189 17.5 12C17.5 10.4811 18.7311 9.25 20.25 9.25C21.7689 9.25 23 10.4811 23 12Z" fill="#FFA800"/>
</svg>
