<svg width="24" height="24" viewBox="0 0 24 24" fill="none" xmlns="http://www.w3.org/2000/svg">
<path d="M18.7752 5.55107C18.7374 5.51316 18.6924 5.48308 18.6429 5.46256C18.5934 5.44204 18.5404 5.43148 18.4868 5.43148C18.4333 5.43148 18.3802 5.44204 18.3307 5.46256C18.2813 5.48308 18.2363 5.51316 18.1985 5.55107L1.4754 22.2741C1.43753 22.312 1.40749 22.357 1.387 22.4064C1.3665 22.4559 1.35595 22.5089 1.35595 22.5625C1.35595 22.6161 1.3665 22.6691 1.387 22.7186C1.40749 22.768 1.43753 22.813 1.4754 22.8509C1.51327 22.8887 1.55823 22.9188 1.60771 22.9393C1.65719 22.9598 1.71022 22.9703 1.76377 22.9703C1.81733 22.9703 1.87036 22.9598 1.91984 22.9393C1.96932 22.9188 2.01427 22.8887 2.05214 22.8509L18.7752 6.12781C18.8131 6.08996 18.8432 6.04501 18.8637 5.99553C18.8842 5.94605 18.8948 5.89301 18.8948 5.83944C18.8948 5.78587 18.8842 5.73283 18.8637 5.68335C18.8432 5.63386 18.8131 5.58891 18.7752 5.55107ZM6.83004 15.766L9.97724 12.6188L8.3343 10.9759C7.50019 10.1418 7.42351 9.37372 8.07693 8.40949C8.1683 8.28305 8.74953 7.76708 9.24714 7.35104C9.56447 7.16178 9.78228 6.88157 9.87772 6.53691C10.0046 6.07886 9.91076 5.54006 9.61138 5.01511C9.54081 4.89438 7.86198 2.04983 6.31367 1.23122C6.02365 1.07804 5.70068 0.997818 5.37269 0.9975C5.1083 0.996816 4.8464 1.04855 4.60214 1.14972C4.35787 1.25088 4.13608 1.39947 3.9496 1.58689L2.91481 2.62208C-0.103909 5.64121 0.454886 9.39125 4.53083 13.4668L6.83004 15.766ZM22.7639 17.6814C21.9448 16.1335 19.1007 14.4543 18.9755 14.3808C18.6104 14.1728 18.2291 14.0631 17.8726 14.0631C17.3419 14.0631 16.9071 14.3062 16.644 14.7483C16.2276 15.2464 15.7112 15.8276 15.5868 15.9177C14.6169 16.5744 13.8586 16.5006 13.0192 15.6612L11.7071 14.349L8.55986 17.4962L10.5283 19.4647C12.8716 21.8083 15.1063 22.9965 17.169 22.9965H17.1694C18.6871 22.9965 20.1012 22.3516 21.373 21.0803L22.4078 20.0455C22.7137 19.7422 22.9135 19.3484 22.9777 18.9225C23.0418 18.4965 22.9668 18.0613 22.7639 17.6814Z" fill="#FFA800"/>
</svg>
