<svg width="24" height="24" viewBox="0 0 24 24" fill="none" xmlns="http://www.w3.org/2000/svg">
<path d="M17.455 2H6.54519C5.34003 2.00144 4.18464 2.48083 3.33246 3.33301C2.48028 4.18519 2.00089 5.34058 1.99945 6.54574V13.8189C2.00077 14.8664 2.36319 15.8815 3.02562 16.693C3.68805 17.5044 4.60999 18.0627 5.63604 18.2737V21.0921C5.63602 21.2567 5.68068 21.4182 5.76526 21.5594C5.84983 21.7006 5.97116 21.8162 6.11629 21.8939C6.26141 21.9715 6.4249 22.0083 6.5893 22.0003C6.7537 21.9923 6.91285 21.9399 7.04977 21.8485L12.2728 18.3647H17.455C18.6601 18.3632 19.8155 17.8838 20.6677 17.0317C21.5199 16.1795 21.9993 15.0241 22.0007 13.8189V6.54574C21.9993 5.34058 21.5199 4.18519 20.6677 3.33301C19.8155 2.48083 18.6601 2.00144 17.455 2ZM15.6367 12.9098H8.36349C8.12236 12.9098 7.89112 12.814 7.72062 12.6435C7.55012 12.473 7.45434 12.2417 7.45434 12.0006C7.45434 11.7595 7.55012 11.5283 7.72062 11.3578C7.89112 11.1873 8.12236 11.0915 8.36349 11.0915H15.6367C15.8778 11.0915 16.109 11.1873 16.2795 11.3578C16.45 11.5283 16.5458 11.7595 16.5458 12.0006C16.5458 12.2417 16.45 12.473 16.2795 12.6435C16.109 12.814 15.8778 12.9098 15.6367 12.9098ZM17.455 9.27318H6.54519C6.30407 9.27318 6.07282 9.1774 5.90233 9.0069C5.73183 8.8364 5.63604 8.60516 5.63604 8.36403C5.63604 8.12291 5.73183 7.89167 5.90233 7.72117C6.07282 7.55067 6.30407 7.45489 6.54519 7.45489H17.455C17.6961 7.45489 17.9273 7.55067 18.0978 7.72117C18.2683 7.89167 18.3641 8.12291 18.3641 8.36403C18.3641 8.60516 18.2683 8.8364 18.0978 9.0069C17.9273 9.1774 17.6961 9.27318 17.455 9.27318Z" fill="#FFA800"/>
</svg>
