<svg width="24" height="24" viewBox="0 0 24 24" fill="none" xmlns="http://www.w3.org/2000/svg">
<path d="M18.2217 9.77734C18.4322 9.77734 18.6151 9.85399 18.7686 10.0078C18.9227 10.1619 19 10.3442 19 10.5547V12.1104C19 13.9009 18.4021 15.4587 17.207 16.7832C16.012 18.1077 14.5352 18.8672 12.7773 19.0615V20.666H15.8887C16.0992 20.6661 16.282 20.7426 16.4355 20.8965C16.5896 21.0503 16.6659 21.2329 16.666 21.4434C16.666 21.6536 16.5895 21.8365 16.4355 21.9902C16.2819 22.144 16.0992 22.2216 15.8887 22.2217H8.11133C7.90068 22.2217 7.71837 22.1441 7.56445 21.9902C7.41049 21.8364 7.33301 21.6537 7.33301 21.4434C7.3331 21.2329 7.41059 21.0502 7.56445 20.8965C7.71829 20.7428 7.90085 20.666 8.11133 20.666H11.2217V19.0615C9.95546 18.9215 8.83637 18.487 7.8623 17.7607L8.97754 16.6455C9.86159 17.2518 10.8692 17.5547 12 17.5547C13.4987 17.5546 14.7807 17.0222 15.8457 15.957C16.9111 14.8917 17.4443 13.6092 17.4443 12.1104V10.5547C17.4444 10.3442 17.5211 10.1617 17.6748 10.0078C17.8289 9.85393 18.0113 9.77738 18.2217 9.77734ZM15.8887 12.1104C15.8887 13.1798 15.5075 14.0962 14.7461 14.8574C13.9847 15.6184 13.0694 15.999 12 15.999C11.3042 15.999 10.6739 15.8369 10.1084 15.5146L15.8887 9.73438V12.1104ZM5.77734 9.77734C5.98798 9.77734 6.17033 9.85407 6.32422 10.0078C6.47805 10.1617 6.55562 10.3442 6.55566 10.5547V12.1104C6.55566 12.8743 6.69398 13.5821 6.9707 14.2334L5.80664 15.3975C5.2694 14.4064 5 13.3109 5 12.1104V10.5547C5.00005 10.3442 5.07651 10.1617 5.23047 10.0078C5.38425 9.85396 5.56672 9.77743 5.77734 9.77734ZM12 1.99902C13.0694 1.99907 13.9846 2.38035 14.7461 3.1416C15.3768 3.77227 15.7452 4.50885 15.8535 5.35059L8.20703 12.9971C8.1437 12.7143 8.11133 12.4187 8.11133 12.1104V5.88867C8.11133 4.8192 8.49134 3.90309 9.25293 3.1416C10.0145 2.38015 10.9305 1.99902 12 1.99902Z" fill="#FFA800"/>
<rect x="2.85809" y="19.4524" width="23.3832" height="1.56087" rx="0.780434" transform="rotate(-45 2.85809 19.4524)" fill="#FFA800"/>
</svg>
