<svg width="24" height="24" viewBox="0 0 24 24" fill="none" xmlns="http://www.w3.org/2000/svg">
<path d="M11.9998 15.9991C13.0694 15.9991 13.9847 15.6183 14.7463 14.857C15.5077 14.0958 15.8884 13.18 15.8884 12.1105V5.88843C15.8884 4.81894 15.508 3.90353 14.7463 3.1419C13.9847 2.38045 13.0694 1.99945 11.9998 1.99945C10.9304 1.99945 10.0149 2.38045 9.25333 3.1419C8.49171 3.9034 8.11096 4.81894 8.11096 5.88843V12.1105C8.11096 13.18 8.49188 14.0958 9.25333 14.857C10.0148 15.6183 10.9304 15.9991 11.9998 15.9991Z" fill="#FFA800"/>
<path d="M18.7687 10.0081C18.6152 9.85417 18.4325 9.77717 18.2218 9.77717C18.0114 9.77717 17.8291 9.85417 17.675 10.0081C17.5212 10.162 17.4442 10.3443 17.4442 10.5549V12.1105C17.4442 13.6094 16.9114 14.8914 15.846 15.9568C14.7809 17.0222 13.4987 17.5549 11.9998 17.5549C10.5009 17.5549 9.21882 17.0222 8.15337 15.9568C7.08804 14.8917 6.55542 13.6095 6.55542 12.1105V10.5549C6.55542 10.3443 6.47842 10.162 6.32455 10.0081C6.17059 9.85417 5.98849 9.77717 5.77771 9.77717C5.56693 9.77717 5.38462 9.85417 5.23075 10.0081C5.07674 10.162 4.99979 10.3443 4.99979 10.5549V12.1105C4.99979 13.901 5.5974 15.4587 6.7923 16.7832C7.98724 18.1077 9.46379 18.8672 11.222 19.0615V20.6659H8.11093C7.90027 20.6659 7.71801 20.7429 7.56409 20.8969C7.41013 21.0507 7.33313 21.2331 7.33313 21.4437C7.33313 21.6541 7.41013 21.8367 7.56409 21.9906C7.71801 22.1444 7.90027 22.2216 8.11093 22.2216H15.8884C16.099 22.2216 16.2816 22.1444 16.4353 21.9906C16.5894 21.8368 16.6664 21.6541 16.6664 21.4437C16.6664 21.2331 16.5894 21.0508 16.4353 20.8969C16.2816 20.7429 16.0991 20.6659 15.8884 20.6659H12.7778V19.0615C14.5357 18.8672 16.0121 18.1077 17.2071 16.7832C18.4022 15.4587 19 13.901 19 12.1105V10.5549C19 10.3444 18.9228 10.1622 18.7687 10.0081Z" fill="#FFA800"/>
</svg>
