<svg width="24" height="24" viewBox="0 0 24 24" fill="none" xmlns="http://www.w3.org/2000/svg">
<path d="M20.599 4.72066C20.3535 4.47443 20.0242 4.32971 19.6768 4.3153C19.3062 4.32356 18.9537 4.47695 18.6952 4.74247C18.4366 5.00799 18.2926 5.36441 18.2941 5.73504V11.092C18.2963 11.292 18.1506 11.463 17.9528 11.493C17.8995 11.4981 17.8458 11.492 17.7951 11.475C17.7444 11.4581 17.6978 11.4307 17.6583 11.3947C17.6187 11.3587 17.5872 11.3148 17.5657 11.2658C17.5442 11.2168 17.5332 11.1639 17.5333 11.1104V2.66937C17.5306 2.30585 17.3849 1.95802 17.1277 1.70106C16.8842 1.45249 16.5534 1.30864 16.2055 1.30006C15.835 1.30863 15.4827 1.46215 15.2241 1.72765C14.9656 1.99316 14.8215 2.34946 14.8228 2.72004V10.0961V10.0956C14.8239 10.1923 14.79 10.2862 14.7273 10.3599C14.6646 10.4336 14.5774 10.4821 14.4817 10.4966C14.4288 10.5019 14.3754 10.4961 14.3249 10.4795C14.2744 10.463 14.2279 10.4361 14.1884 10.4005C14.1489 10.365 14.1172 10.3215 14.0955 10.273C14.0737 10.2245 14.0623 10.172 14.0621 10.1189V1.87198C14.0622 1.68483 14.0244 1.4996 13.9508 1.32749C13.8773 1.15538 13.7697 0.99998 13.6344 0.870682C13.4991 0.741384 13.3389 0.64088 13.1637 0.575249C12.9884 0.509619 12.8016 0.480226 12.6147 0.488851C12.2438 0.496111 11.8907 0.649182 11.6319 0.914913C11.373 1.18064 11.2293 1.53764 11.2318 1.90859V10.1094C11.2329 10.2061 11.199 10.3 11.1363 10.3737C11.0736 10.4474 10.9864 10.496 10.8907 10.5104C10.8378 10.5157 10.7844 10.5098 10.7339 10.4932C10.6834 10.4766 10.637 10.4496 10.5976 10.4139C10.5582 10.3783 10.5266 10.335 10.5048 10.2866C10.483 10.2382 10.4715 10.1858 10.471 10.1327V3.56834C10.4712 3.20712 10.3301 2.86017 10.0777 2.60175C9.82528 2.34334 9.48175 2.194 9.12063 2.1857C8.74966 2.19271 8.39642 2.3457 8.13754 2.61148C7.87865 2.87727 7.735 3.23441 7.73775 3.60543V13.9172L6.35438 12.0504C6.08551 11.6959 5.68714 11.4625 5.2465 11.4011C4.80587 11.3398 4.35888 11.4556 4.00342 11.7231C3.66536 11.9809 3.43748 12.3572 3.36565 12.7762C3.29381 13.1953 3.38335 13.626 3.61624 13.9817L6.13303 18.0062C6.35625 18.3578 6.55207 18.7262 6.71876 19.1079L6.76483 19.214C9.44768 25.2896 18.2202 24.8287 20.2484 18.5039C20.7468 16.9531 21.0004 15.334 21 13.705V5.68873C20.9983 5.32586 20.8542 4.97817 20.5988 4.72042L20.599 4.72066Z" fill="#FFA800"/>
</svg>
