<svg width="24" height="24" viewBox="0 0 24 24" fill="none" xmlns="http://www.w3.org/2000/svg">
<path d="M18.5002 17.2502C19.4628 17.2502 20.2415 16.4627 20.2415 15.5001L20.2502 6.75005C20.2502 5.77878 19.4627 5.00001 18.5002 5.00001H4.50003C4.26999 4.99921 4.04206 5.04394 3.82938 5.1316C3.61669 5.21927 3.42346 5.34814 3.26079 5.51081C3.09813 5.67347 2.96925 5.86671 2.88158 6.07939C2.79392 6.29208 2.7492 6.52 2.74999 6.75005V15.5001C2.75003 16.4627 3.52877 17.2502 4.50003 17.2502H1V19.0002H22.0003V17.2502H18.5002ZM12.3751 14.1614V12.2451C9.94258 12.2451 8.34131 12.9888 7.12506 14.6251C7.61508 12.2889 8.97132 9.96132 12.3751 9.48881V7.62504L15.8752 10.8888L12.3751 14.1614Z" fill="#FFA800"/>
</svg>
