<svg width="24" height="24" viewBox="0 0 24 24" fill="none" xmlns="http://www.w3.org/2000/svg">
<path d="M6.30359 16.7342C4.91378 16.736 3.58005 17.2825 2.58854 18.2564C1.59702 19.2303 1.02673 20.554 1 21.9435H11.6072C11.5804 20.554 11.0101 19.2303 10.0186 18.2564C9.02712 17.2825 7.69339 16.736 6.30359 16.7342ZM6.30359 15.9485C6.85219 15.9524 7.38959 15.7933 7.84764 15.4913C8.30568 15.1894 8.66373 14.7582 8.87637 14.2524C9.08901 13.7467 9.14667 13.1892 9.04203 12.6507C8.9374 12.1121 8.67517 11.6168 8.28862 11.2275C7.90208 10.8382 7.40861 10.5724 6.87083 10.464C6.33304 10.3555 5.77515 10.4092 5.26792 10.6182C4.76068 10.8272 4.32696 11.1822 4.02175 11.6381C3.71654 12.094 3.55359 12.6302 3.55358 13.1789C3.55356 13.91 3.84266 14.6115 4.35783 15.1304C4.873 15.6492 5.57244 15.9433 6.30359 15.9485ZM12 8.54706C12.5506 8.55172 13.09 8.39242 13.5498 8.08946C14.0095 7.7865 14.3686 7.35357 14.5814 6.84582C14.7943 6.33806 14.8512 5.77845 14.7449 5.23824C14.6387 4.69803 14.374 4.20167 13.9847 3.81236C13.5954 3.42306 13.0991 3.15842 12.5588 3.05216C12.0186 2.94589 11.459 3.0028 10.9513 3.21564C10.4435 3.42848 10.0106 3.78762 9.70762 4.24733C9.40466 4.70704 9.24536 5.24651 9.25002 5.79705C9.25719 6.52418 9.54922 7.2195 10.0634 7.73368C10.5776 8.24786 11.2729 8.5399 12 8.54706ZM17.6965 16.7342C16.3067 16.736 14.9729 17.2825 13.9814 18.2564C12.9899 19.2303 12.4196 20.554 12.3929 21.9435H23.0001C22.9733 20.554 22.403 19.2303 21.4115 18.2564C20.42 17.2825 19.0863 16.736 17.6965 16.7342ZM17.6965 15.9485C18.2451 15.9524 18.7825 15.7933 19.2405 15.4913C19.6986 15.1894 20.0566 14.7582 20.2693 14.2524C20.4819 13.7467 20.5396 13.1892 20.4349 12.6507C20.3303 12.1121 20.0681 11.6168 19.6815 11.2275C19.295 10.8382 18.8015 10.5724 18.2637 10.464C17.7259 10.3555 17.168 10.4092 16.6608 10.6182C16.1536 10.8272 15.7198 11.1822 15.4146 11.6381C15.1094 12.094 14.9465 12.6302 14.9465 13.1789C14.9464 13.91 15.2356 14.6115 15.7507 15.1304C16.2659 15.6492 16.9653 15.9433 17.6965 15.9485Z" fill="#FFA800"/>
<path d="M9.8589 13.1788C9.85976 13.7941 9.70002 14.399 9.39548 14.9337C9.09094 15.4683 8.65215 15.9143 8.12247 16.2274C9.00503 16.5067 9.81262 16.9828 10.4843 17.6198C11.156 18.2568 11.6743 19.038 12 19.9045C12.3257 19.038 12.8439 18.2568 13.5156 17.6198C14.1873 16.9828 14.9949 16.5067 15.8775 16.2274C15.3934 15.9441 14.9836 15.5496 14.6821 15.0766C14.3805 14.6037 14.1958 14.0657 14.1432 13.5073C14.0907 12.9488 14.1717 12.3859 14.3797 11.8649C14.5876 11.344 14.9166 10.88 15.3393 10.5113C14.3955 9.7449 13.2157 9.3285 12 9.33272C10.7856 9.32941 9.60733 9.74575 8.66461 10.5113C9.04232 10.8451 9.3443 11.2558 9.55028 11.7159C9.75626 12.1759 9.86148 12.6747 9.8589 13.1788Z" fill="#FFA800"/>
</svg>
