<svg width="24" height="24" viewBox="0 0 24 24" fill="none" xmlns="http://www.w3.org/2000/svg">
<path d="M13.4442 7H3.40711C2.08324 7 1 7.92186 1 9.04853V15.9515C1 17.0781 2.08324 18 3.40711 18H13.4442C14.768 18 15.8513 17.0781 15.8513 15.9515V9.04853C15.8513 7.90151 14.768 7 13.4442 7ZM21.2189 8.12667C21.0746 8.14703 20.9302 8.20851 20.8099 8.27L17.0548 10.1137V14.8659L20.8339 16.7096C21.5322 17.0578 22.3984 16.853 22.8075 16.2589C22.9278 16.0744 23 15.8696 23 15.6445V9.31483C23 8.55707 22.1574 7.94222 21.2189 8.12667Z" fill="#FFA800"/>
</svg>
