<svg width="24" height="24" viewBox="0 0 24 24" fill="none" xmlns="http://www.w3.org/2000/svg">
<path d="M15.8516 15.9512C15.8516 17.0778 14.7681 17.9999 13.4443 18H6.70898L15.8516 9.76758V15.9512ZM13.4443 7C13.7433 7.00002 14.0292 7.0484 14.2939 7.13281L2.42578 17.8184C1.58789 17.497 1 16.7806 1 15.9512V9.04883C1 7.92216 2.08336 7 3.40723 7H13.4443ZM21.2188 8.12695C22.157 7.94253 22.9997 8.55687 23 9.31445V15.6445C23 15.8696 22.9279 16.0744 22.8076 16.2588C22.3986 16.8528 21.5322 17.058 20.834 16.71L17.0547 14.8662V10.1133L20.8096 8.26953C20.9298 8.20808 21.0745 8.14734 21.2188 8.12695Z" fill="#FFA800"/>
<line x1="19.4614" y1="4.49016" x2="1.54232" y2="20.6246" stroke="#FFA800" stroke-width="1.5" stroke-linecap="round"/>
</svg>
